<?xml version="1.0" encoding="utf-8"?>
<!-- Generator: Adobe Illustrator 25.2.1, SVG Export Plug-In . SVG Version: 6.00 Build 0)  -->
<svg version="1.1" id="Layer_1" xmlns="http://www.w3.org/2000/svg" xmlns:xlink="http://www.w3.org/1999/xlink" x="0px" y="0px"
	 viewBox="0 0 587 552" style="enable-background:new 0 0 587 552;" xml:space="preserve">
<style type="text/old/css">
	.st0{fill:#4F575C;}
	.st1{fill:#CD0000;}
	.st2{fill:#F03800;}
	.st3{fill:#CBD7F1;}
	.st4{fill:#B1BBE8;}
	.st5{fill:#FF6C6C;}
</style>
<g>
	<path class="st0" d="M198.47,40c8.99-9.34,22.06-14.64,35.02-14.11c37.67,0.08,75.33-0.16,113-0.1c8.36,0.12,16.97-0.69,25.02,2.12
		c18.59,5.62,32.41,23.7,32.97,43.11c-0.01,16.22,0,32.44-0.01,48.66c-6.8-0.01-13.61,0.18-20.41-0.13
		c-3.88-0.18-7.77-0.12-11.64-0.12c-0.03-15.5,0.05-30.99-0.04-46.48c0.07-7.93-6.84-15.23-14.87-14.99
		c-42.02,0.09-84.04-0.24-126.05-0.05c-8-0.19-14.65,7.19-14.61,15.01c-0.13,15.58,0,31.16-0.06,46.74c-3.69,0-7.37-0.01-11.06-0.03
		c-6.9-0.01-13.8-0.03-20.7,0.01c-0.09-15.56-0.04-31.12-0.02-46.68C184.88,60.76,189.83,48.61,198.47,40z"/>
	<path class="st0" d="M122.46,276.46c31.44,0.03,62.88,0.03,94.32,0c0.02,20.85,0.02,41.7-0.01,62.55
		c-7.95,0.02-15.91,0.06-23.87-0.04c-10.6-0.05-21.21-0.05-31.82,0c-12.87,0.1-25.74,0.07-38.61,0.02
		C122.44,318.15,122.46,297.31,122.46,276.46z"/>
	<path class="st0" d="M372.46,276.68c31.44,0,62.88,0,94.32,0c0.01,20.78,0.02,41.55-0.01,62.32c-12.76,0.06-25.53,0.01-38.29,0.03
		c-10.69,0-21.38,0-32.06,0c-7.98-0.03-15.97,0.04-23.95-0.04C372.44,318.22,372.46,297.45,372.46,276.68z"/>
</g>
<g>
	<path class="st1" d="M294.3,119.54c26.04-0.28,52.08-0.04,78.12-0.11c3.87,0,7.76-0.06,11.64,0.12
		c4.88,20.87,10.23,41.64,15.4,62.44c-34.97-0.07-69.94,0.09-104.91-0.09C294.12,161.12,294.61,140.33,294.3,119.54z"/>
	<path class="st1" d="M416.24,119.44c27.33-0.05,54.67,0,82.01-0.02c4.94,20.9,10.35,41.69,15.39,62.57
		c-27.25-0.05-54.49,0.04-81.74-0.05C426.72,161.1,421.82,140.17,416.24,119.44z"/>
	<path class="st1" d="M294.46,276.53c25.99,0.32,52,0,78,0.15c0,20.77-0.02,41.54,0.01,62.31c7.98,0.08,15.97,0.01,23.95,0.04
		c-2.81,54.99-5.19,109.99-7.96,164.98c0.15,7.57-1.21,15.1-0.82,22.67c-31.1-0.03-62.21,0.2-93.3-0.11
		C294.51,443.22,294.26,359.87,294.46,276.53z"/>
	<path class="st1" d="M466.78,276.68c23.45-0.02,46.9-0.07,70.35,0.01c-8.2,83.35-16.73,166.67-24.74,250.03
		c-31.03-0.03-62.07,0-93.1-0.02c2.72-53.92,5.19-107.86,7.8-161.78c0.68-8.62,0.43-17.29,1.39-25.89
		c12.76-0.02,25.53,0.03,38.29-0.03C466.8,318.23,466.79,297.46,466.78,276.68z"/>
</g>
<g>
	<path class="st2" d="M66.72,119.67c35.47-0.05,70.94,0.06,106.41-0.06c-5.25,20.8-10.4,41.62-15.75,62.39
		c-35.38-0.02-70.77-0.01-106.16,0C56.28,161.19,61.85,140.51,66.72,119.67z"/>
	<path class="st2" d="M205.73,119.63c3.69,0.02,7.37,0.03,11.06,0.03c25.84-0.07,51.68,0.16,77.51-0.12
		c0.31,20.79-0.18,41.58,0.25,62.36c34.97,0.18,69.94,0.02,104.91,0.09c10.81-0.03,21.63,0.07,32.44-0.05
		c27.25,0.09,54.49,0,81.74,0.05c15.62-0.01,31.24-0.01,46.86,0c0.01,31.55-0.02,63.09,0.01,94.64
		c-44.01-0.55-88.04-0.06-132.06-0.16c-44.68-0.06-89.37,0.05-134.05-0.21c-0.04-31.41,0.01-62.83-0.02-94.24
		c-34.77-0.11-69.53,0.08-104.3-0.09C195.17,161.13,200.46,140.38,205.73,119.63z"/>
	<path class="st2" d="M52.37,276.45c23.36,0,46.73-0.03,70.09,0.01c0,20.85-0.02,41.69,0.01,62.53c12.87,0.05,25.74,0.08,38.61-0.02
		c2.82,62.53,5.91,125.03,8.93,187.55c-30.92-0.17-61.84-0.04-92.75-0.07C68.81,443.13,60.59,359.79,52.37,276.45z"/>
	<path class="st2" d="M216.78,276.46c25.89,0.02,51.79-0.12,77.68,0.07c-0.2,83.34,0.05,166.69-0.12,250.04
		c-30.84-0.26-61.69-0.12-92.54-0.07c-2.8-62.52-5.81-125.03-8.9-187.53c7.96,0.1,15.92,0.06,23.87,0.04
		C216.8,318.16,216.8,297.31,216.78,276.46z"/>
</g>
<g>
	<path class="st3" d="M173.13,119.61c3.97,0.08,7.93,0.06,11.9,0.03c6.9-0.04,13.8-0.02,20.7-0.01
		c-5.27,20.75-10.56,41.5-15.65,62.3c-10.9,0.15-21.8,0.02-32.7,0.07C162.73,161.23,167.88,140.41,173.13,119.61z"/>
	<path class="st3" d="M161.08,338.97c10.61-0.05,21.22-0.05,31.82,0c3.09,62.5,6.1,125.01,8.9,187.53
		c-10.59-0.08-21.19-0.12-31.79,0.02C166.99,464,163.9,401.5,161.08,338.97z"/>
</g>
<g>
	<path class="st4" d="M384.06,119.55c6.8,0.31,13.61,0.12,20.41,0.13c3.92-0.1,7.86,0.19,11.77-0.24
		c5.58,20.73,10.48,41.66,15.66,62.5c-10.81,0.12-21.63,0.02-32.44,0.05C394.29,161.19,388.94,140.42,384.06,119.55z"/>
	<path class="st4" d="M396.42,339.03c10.68,0,21.37,0,32.06,0c-0.96,8.6-0.71,17.27-1.39,25.89c-2.61,53.92-5.08,107.86-7.8,161.78
		c-10.52-0.45-21.12-0.4-31.65-0.02c-0.39-7.57,0.97-15.1,0.82-22.67C391.23,449.02,393.61,394.02,396.42,339.03z"/>
</g>
<g>
	<path class="st5" d="M157.38,182c10.9-0.05,21.8,0.08,32.7-0.07c34.77,0.17,69.53-0.02,104.3,0.09
		c0.03,31.41-0.02,62.83,0.02,94.24c44.68,0.26,89.37,0.15,134.05,0.21c44.02,0.1,88.05-0.39,132.06,0.16
		c-7.79,0.14-15.59,0.02-23.38,0.06c-23.45-0.08-46.9-0.03-70.35-0.01c-31.44,0-62.88,0-94.32,0c-26-0.15-52.01,0.17-78-0.15
		c-25.89-0.19-51.79-0.05-77.68-0.07c-31.44,0.03-62.88,0.03-94.32,0c-23.36-0.04-46.73-0.01-70.09-0.01
		c-8.29-0.02-16.58,0-24.87-0.01c0.06-30.71-0.12-61.42,0.09-92.12l1.01-0.6c-0.32-0.44-0.96-1.3-1.29-1.73
		c7.97,0.01,15.94,0,23.91,0.01C86.61,181.99,122,181.98,157.38,182z"/>
</g>
</svg>
